<svg width="110" height="135" viewBox="0 0 110 135" fill="none" xmlns="http://www.w3.org/2000/svg">
<path d="M37.8831 53.223C38.7541 54.8363 40.5901 55.5941 42.3479 55.0668C42.3947 55.0512 42.4416 55.0395 42.4924 55.0277C43.3596 57.7543 44.3674 60.0394 45.6135 62.1215C46.2307 63.141 47.3244 63.7426 48.4846 63.7426C48.7307 63.7426 48.9807 63.7153 49.2307 63.6606L52.1487 63.0005C53.1956 62.77 54.0432 62.0747 54.4768 61.0943C54.9143 60.1099 54.8635 59.0123 54.3401 58.0904C53.6018 56.7701 52.9104 55.2545 52.2229 53.4302C57.9417 53.3286 63.0349 54.9029 67.4379 58.1372C68.4222 58.9418 69.4535 59.4145 70.5121 59.4145C70.8324 59.4145 71.1566 59.3715 71.4847 59.2816C73.8245 58.6371 75.0433 55.9339 75.1019 51.2543C75.1527 47.4652 74.4339 42.684 73.0824 37.7813C71.0746 30.5118 66.1996 18.6213 60.6804 20.1403C59.3835 20.4958 58.4343 21.4841 57.8327 23.0856C54.4186 30.9372 47.8796 35.9056 37.8447 38.2736C36.0635 38.6916 34.8525 40.2619 34.8994 42.0939C34.9463 43.883 35.2393 45.8127 35.7783 47.8283C36.3213 49.8439 37.0315 51.6644 37.8831 53.223ZM50.6331 59.3675L48.7386 59.7972C47.7698 58.1292 46.9652 56.2738 46.2542 54.0863C46.9182 53.9535 47.5706 53.8441 48.219 53.7504C49.0002 55.9418 49.7815 57.7659 50.6331 59.3675ZM64.2621 41.7975C64.0589 42.1491 63.7581 42.4147 63.3988 42.5748C63.1956 41.9264 63.0003 41.2701 62.8167 40.6021C62.6683 40.067 62.5277 39.5318 62.3988 39.0005C63.3167 38.8834 64.2035 39.4615 64.4496 40.3755C64.5785 40.856 64.5121 41.36 64.2621 41.7975ZM61.723 23.9105C62.1644 24.0902 63.3675 25.0238 64.9886 27.8402C66.6409 30.7152 68.1917 34.6097 69.3519 38.8052C70.5081 43.0005 71.1761 47.1372 71.2308 50.4502C71.2854 53.6963 70.7268 55.1143 70.4417 55.4971C70.3089 55.4424 70.1018 55.3174 69.8362 55.0909C69.8323 55.0909 69.8323 55.087 69.8284 55.087C69.219 54.5674 68.2972 53.5206 67.1761 51.5714C66.2972 50.0441 65.4495 48.2316 64.6761 46.2394C65.9105 45.7706 66.9417 44.8996 67.6136 43.7355C68.3831 42.4035 68.5863 40.8566 68.1878 39.3761C67.4066 36.4659 64.5081 34.6769 61.5901 35.2159C61.1917 32.962 60.9651 30.8331 60.9339 28.962C60.8792 25.712 61.4339 24.2894 61.723 23.9105ZM57.1957 31.473C57.4574 34.5746 58.1058 38.0707 59.0902 41.629C59.8753 44.4688 61.0941 48.0157 62.6214 51.1954C58.4691 49.6993 53.9417 49.211 49.0664 49.7345C48.0273 48.34 47.2305 46.6876 46.75 44.8947C46.2578 43.0588 46.121 41.2502 46.3398 39.508C48.5546 38.5236 50.5664 37.3635 52.3593 36.0432C54.164 34.7073 55.7778 33.18 57.1957 31.473ZM42.3757 41.0199C42.3678 42.6332 42.5788 44.2816 43.0124 45.8988C43.446 47.5082 44.0788 49.0316 44.8874 50.4183C43.6999 50.6761 42.4968 50.9808 41.2702 51.348C40.5788 50.0707 39.9733 48.5042 39.5163 46.8207C39.0671 45.141 38.8092 43.4848 38.7702 42.0277C40.0163 41.7308 41.2155 41.3949 42.3757 41.0199ZM77.7346 34.5902L81.762 33.5121C82.7932 33.2348 83.8558 33.848 84.1331 34.8793C84.4104 35.9105 83.7971 36.9731 82.7659 37.2504L78.7386 38.3285C78.5706 38.3754 78.4026 38.3949 78.2346 38.3949C77.3792 38.3949 76.5979 37.8246 76.3674 36.9613C76.0901 35.9261 76.7034 34.8675 77.7346 34.5902ZM72.3206 28.2386C71.5627 27.4808 71.5627 26.2581 72.3206 25.5003L75.2698 22.5511C76.0276 21.7933 77.2503 21.7933 78.0081 22.5511C78.7659 23.3089 78.7659 24.5316 78.0081 25.2894L75.0589 28.2386C74.6799 28.6175 74.1878 28.805 73.6917 28.805C73.1917 28.8089 72.6995 28.6175 72.3206 28.2386ZM83.6216 46.2466C84.6528 46.5239 85.2661 47.5864 84.9888 48.6177C84.7583 49.481 83.9732 50.0513 83.1216 50.0513C82.9575 50.0513 82.7856 50.0318 82.6176 49.9849L78.5903 48.9068C77.5591 48.6295 76.9458 47.567 77.2231 46.5357C77.5004 45.5044 78.5629 44.8912 79.5942 45.1685L83.6216 46.2466ZM85.6763 76.2776C87.0825 74.1643 87.813 71.4456 87.813 68.8049C87.813 63.844 83.7739 59.8088 78.8091 59.8088C73.8443 59.8088 69.8052 63.844 69.8052 68.8049C69.8052 71.344 70.52 73.9611 71.7661 75.9807C71.8286 76.0823 71.895 76.176 71.9575 76.2737C68.3403 76.4299 65.1802 78.4339 63.6294 81.4221C63.0591 81.2971 62.4692 81.215 61.8677 81.1877C63.2739 79.0744 64.0044 76.3596 64.0044 73.7229C64.0044 68.7581 59.9653 64.719 55.0005 64.719C50.0357 64.719 45.9966 68.7581 45.9966 73.7229C45.9966 76.262 46.7114 78.8752 47.9536 80.8948C48.0161 80.9964 48.0825 81.0901 48.145 81.1878C47.5356 81.2151 46.9458 81.2971 46.3716 81.4221C44.8208 78.4377 41.6685 76.4339 38.0552 76.2738C39.4614 74.1605 40.1919 71.4417 40.1919 68.801C40.1919 63.8401 36.1528 59.8049 31.188 59.8049C26.2232 59.8049 22.1841 63.8401 22.1841 68.801C22.1841 71.3401 22.8989 73.9572 24.1411 75.9768C24.2036 76.0784 24.27 76.1722 24.3325 76.2698C19.145 76.4964 14.9966 80.5471 14.9966 85.4886V90.1448C14.9966 93.0003 17.3208 95.3245 20.1763 95.3245H38.8323C39.1018 97.9495 41.3128 100 43.9964 100H66.0044C68.688 100 70.8989 97.9495 71.1606 95.3362H89.8166C92.6721 95.3362 94.9963 93.012 94.9963 90.1565V85.5003C94.9963 80.5589 90.8599 76.512 85.6763 76.2776ZM78.8091 63.6796C81.6372 63.6796 83.9419 65.9804 83.9419 68.8085C83.9419 71.9062 82.3481 76.2694 78.8091 76.2694C74.9302 76.2694 73.6763 71.246 73.6763 68.8085C73.6763 65.9804 75.981 63.6796 78.8091 63.6796ZM55.0001 68.5937C57.8282 68.5937 60.1329 70.8945 60.1329 73.7265C60.1329 76.8203 58.5391 81.1796 55.0001 81.1796C51.1212 81.1796 49.8673 76.1562 49.8673 73.7265C49.8673 70.8945 52.172 68.5937 55.0001 68.5937ZM31.1911 63.6796C34.0192 63.6796 36.3239 65.9804 36.3239 68.8085C36.3239 71.9062 34.7301 76.2694 31.1911 76.2694C27.3122 76.2694 26.0583 71.246 26.0583 68.8085C26.0583 65.9804 28.3591 63.6796 31.1911 63.6796ZM38.8161 90.4096V91.4643H20.1831C19.4604 91.4643 18.8706 90.8745 18.8706 90.1557V85.4995C18.8706 82.5425 21.5308 80.1401 24.8003 80.1401H37.5813C39.7805 80.1401 41.7844 81.2807 42.804 82.9878C40.386 84.6636 38.8161 87.3666 38.8161 90.4096ZM67.3121 94.8198C67.3121 95.5425 66.7222 96.1284 65.9996 96.1284H43.9956C43.2729 96.1284 42.6831 95.5386 42.6831 94.8198V90.4136C42.6831 87.4566 45.3393 85.0542 48.605 85.0542H61.386C64.6516 85.0542 67.3079 87.4604 67.3079 90.4136L67.3121 94.8198ZM91.1281 90.1557C91.1281 90.8784 90.5382 91.4643 89.8156 91.4643H71.1826V90.4096C71.1826 87.3666 69.6123 84.6635 67.1943 82.9799C68.2099 81.2729 70.2138 80.1322 72.417 80.1322L85.198 80.1361C88.4675 80.1361 91.1277 82.5423 91.1277 85.4955L91.1281 90.1557Z" fill="black"/>
</svg>
