<svg width="90" height="62" viewBox="0 0 90 62" fill="none" xmlns="http://www.w3.org/2000/svg">
<path d="M89.6082 27.0976L76.6722 2.08656C76.2429 1.25979 75.5033 0.636923 74.6156 0.354445C73.7278 0.0719679 72.7643 0.152919 71.9362 0.579562L64.7072 4.31856C63.8909 4.74213 63.273 5.46866 62.9861 6.34239C62.6991 7.21612 62.7659 8.1675 63.1722 8.99256L62.2802 9.29256C61.589 9.52901 60.8602 9.63613 60.1302 9.60856L51.6152 9.37256C49.3727 9.2834 47.1854 10.0814 45.5272 11.5936L42.0622 14.6776L28.6112 9.63456C29.0539 8.85285 29.1805 7.93135 28.9652 7.0592C28.7498 6.18705 28.2088 5.4304 27.4532 4.94456L20.6002 0.553563C19.8151 0.0519584 18.8631 -0.117825 17.9529 0.0814448C17.0428 0.280715 16.2489 0.832774 15.7452 1.61656L0.553183 25.3246C0.0518438 26.1098 -0.117785 27.0617 0.0814681 27.9717C0.280721 28.8818 0.832604 29.6757 1.61618 30.1796L8.46918 34.5706C9.20295 35.0399 10.0848 35.2202 10.9439 35.0764C11.803 34.9327 12.5781 34.4752 13.1192 33.7926L16.3112 37.7926L14.7112 40.2816C13.9518 41.4702 13.6948 42.9116 13.9966 44.2894C14.2984 45.6673 15.1344 46.8692 16.3212 47.6316C17.1716 48.1791 18.1617 48.4704 19.1732 48.4706C19.3804 48.4703 19.5875 48.4576 19.7932 48.4326C19.7254 49.0205 19.7558 49.6156 19.8832 50.1936C20.1755 51.5452 20.9846 52.7291 22.1377 53.4925C23.2909 54.2559 24.6967 54.5383 26.0552 54.2796C26.0529 54.6759 26.0945 55.0713 26.1792 55.4586C26.4347 56.6414 27.0873 57.7013 28.0286 58.4619C28.9698 59.2225 30.143 59.6381 31.3532 59.6396C31.7416 59.6395 32.1288 59.5976 32.5082 59.5146C33.4688 59.3067 34.3528 58.8358 35.0612 58.1546C35.4721 59.1032 36.1509 59.9112 37.0144 60.4796C37.8778 61.0481 38.8884 61.3521 39.9222 61.3546C40.3106 61.3541 40.6978 61.3119 41.0772 61.2286C41.7602 61.0819 42.4073 60.8012 42.981 60.4026C43.5547 60.004 44.0435 59.4955 44.4192 58.9066L45.0192 57.9776L48.7462 60.3776C49.5988 60.928 50.5923 61.2208 51.6072 61.2206C51.9952 61.2205 52.3821 61.1786 52.7612 61.0956C54.0625 60.8148 55.2112 60.0564 55.9807 58.97C56.7501 57.8836 57.0843 56.5483 56.9172 55.2276C57.8995 55.3284 58.8905 55.1549 59.7801 54.7263C60.6697 54.2976 61.423 53.6307 61.9562 52.7996C62.5544 51.866 62.8431 50.7676 62.7812 49.6606C63.5922 49.8767 64.4429 49.8984 65.2639 49.7238C66.0849 49.5492 66.8531 49.1832 67.506 48.6557C68.1589 48.1283 68.6781 47.4541 69.0213 46.6881C69.3645 45.9221 69.5221 45.0859 69.4812 44.2476C70.6003 44.5438 71.7853 44.4681 72.8576 44.0319C73.9299 43.5957 74.8313 42.8227 75.4259 41.8295C76.0205 40.8362 76.276 39.6766 76.154 38.5254C76.0319 37.3743 75.5389 36.294 74.7492 35.4476L76.2292 34.2296C76.54 34.7579 76.9835 35.1958 77.5157 35.4999C78.0478 35.8041 78.6502 35.9639 79.2632 35.9636C79.823 35.9638 80.3746 35.829 80.8712 35.5706L88.1002 31.8346C88.927 31.405 89.5499 30.6653 89.8324 29.7774C90.1149 28.8895 90.0349 27.9259 89.6082 27.0976ZM43.1422 17.0576L43.1812 17.0236L47.1892 13.4556C47.7745 12.9163 48.4607 12.4983 49.2083 12.2256C49.9559 11.9528 50.7502 11.8308 51.5452 11.8666L60.0602 12.1026C61.0787 12.1379 62.0951 11.9881 63.0602 11.6606L64.3262 11.2416L75.0502 31.9656L72.6732 33.9216L59.7002 25.6086C59.0071 25.1573 58.2513 24.8106 57.4572 24.5796C55.2212 23.9166 53.7282 21.9416 53.3572 19.1616C53.3312 18.9639 53.2583 18.7753 53.1445 18.6115C53.0308 18.4478 52.8795 18.3136 52.7032 18.2203C52.527 18.127 52.331 18.0773 52.1316 18.0752C51.9323 18.0732 51.7353 18.1189 51.5572 18.2086C48.8012 20.0509 46.2314 22.1576 43.8842 24.4986C43.3415 24.9247 42.7001 25.2071 42.0194 25.3198C41.3386 25.4324 40.6405 25.3717 39.9894 25.1431C39.3384 24.9146 38.7555 24.5256 38.2945 24.0122C37.8336 23.4988 37.5095 22.8774 37.3522 22.2056L43.1422 17.0576ZM9.81718 32.4666L2.96518 28.0796C2.73935 27.9342 2.58028 27.7053 2.52275 27.4429C2.46522 27.1806 2.51391 26.9061 2.65818 26.6796L17.8502 2.96556C17.9221 2.85353 18.0155 2.75687 18.125 2.68118C18.2345 2.60548 18.358 2.55225 18.4882 2.52456C18.5615 2.50868 18.6362 2.50063 18.7112 2.50056C18.9029 2.50027 19.0907 2.55512 19.2522 2.65856L26.1002 7.04956C26.3252 7.19566 26.4836 7.42451 26.541 7.68655C26.5985 7.94859 26.5504 8.22272 26.4072 8.44956L25.6732 9.59556V9.60156L12.1552 30.6996C11.9861 30.8507 11.8613 31.045 11.7942 31.2616L11.2192 32.1616C11.0735 32.3876 10.844 32.5467 10.5812 32.6038C10.3184 32.661 10.0437 32.6116 9.81718 32.4666ZM17.6732 45.5256C17.0431 45.1213 16.5994 44.4834 16.4394 43.7521C16.2795 43.0208 16.4164 42.2559 16.8202 41.6256L20.7272 35.5256C21.137 34.9099 21.7722 34.4798 22.4961 34.3279C23.2199 34.176 23.9744 34.3144 24.5972 34.7134C25.22 35.1124 25.6611 35.7399 25.8257 36.461C25.9903 37.182 25.8651 37.9389 25.4772 38.5686L21.5692 44.6686C21.1658 45.2984 20.5289 45.7424 19.7985 45.903C19.068 46.0637 18.3036 45.928 17.6732 45.5256ZM23.5582 51.4306C22.9296 51.0251 22.4871 50.3873 22.3272 49.6565C22.1674 48.9258 22.3033 48.1614 22.7052 47.5306L29.1142 37.5306C29.3137 37.2189 29.5731 36.95 29.8773 36.7392C30.1814 36.5284 30.5243 36.38 30.8862 36.3026C31.0882 36.2581 31.2944 36.2356 31.5012 36.2356C32.0063 36.2381 32.5016 36.3763 32.9351 36.6355C33.3687 36.8948 33.7247 37.2657 33.966 37.7095C34.2073 38.1533 34.3251 38.6537 34.307 39.1586C34.2889 39.6634 34.1356 40.1542 33.8632 40.5796L31.6812 43.9796L27.4532 50.5796C27.049 51.2083 26.4119 51.651 25.6817 51.8106C24.9515 51.9701 24.1878 51.8335 23.5582 51.4306ZM31.9732 57.0796C31.4283 57.2 30.8599 57.1559 30.3402 56.9526C29.8205 56.7494 29.3729 56.3963 29.0543 55.9382C28.7357 55.48 28.5605 54.9375 28.5508 54.3796C28.5412 53.8217 28.6976 53.2734 29.0002 52.8046L29.5602 51.9306L33.4332 45.8796L36.6872 40.8026C36.8868 40.4906 37.1462 40.2214 37.4506 40.0105C37.7549 39.7995 38.0981 39.651 38.4602 39.5736C38.6622 39.5295 38.8684 39.507 39.0752 39.5066C39.5794 39.5102 40.0734 39.6488 40.5058 39.9079C40.9383 40.1671 41.2935 40.5373 41.5345 40.9802C41.7755 41.4231 41.8935 41.9224 41.8762 42.4263C41.8589 42.9302 41.707 43.4203 41.4362 43.8456L38.4062 48.5736L35.4612 53.1736L33.7472 55.8486C33.5477 56.161 33.2881 56.4306 32.9836 56.6419C32.6791 56.8533 32.3356 57.002 31.9732 57.0796ZM40.5422 58.7956C39.9981 58.9138 39.4313 58.8683 38.913 58.6648C38.3948 58.4614 37.9484 58.1091 37.63 57.6524C37.3117 57.1957 37.1356 56.6549 37.1241 56.0983C37.1125 55.5417 37.266 54.9941 37.5652 54.5246L40.5112 49.9246L41.1062 48.9956C41.304 48.6793 41.5627 48.4055 41.8671 48.1899C42.1715 47.9742 42.5156 47.8211 42.8796 47.7394C43.2435 47.6577 43.6201 47.6489 43.9874 47.7137C44.3548 47.7785 44.7057 47.9154 45.0197 48.1167C45.3338 48.318 45.6048 48.5796 45.8172 48.8863C46.0295 49.193 46.1788 49.5388 46.2566 49.9036C46.3344 50.2684 46.3391 50.645 46.2703 51.0117C46.2016 51.3783 46.0608 51.7277 45.8562 52.0396L42.3152 57.5656C42.1153 57.8769 41.8557 58.1456 41.5514 58.356C41.2471 58.5664 40.9041 58.7145 40.5422 58.7916V58.7956ZM73.2362 40.6206C72.8297 41.2531 72.1889 41.6986 71.4544 41.8593C70.7199 42.0199 69.9516 41.8827 69.3182 41.4776L67.0342 40.0136L59.5662 35.2276C59.4285 35.1276 59.2719 35.0568 59.1059 35.0195C58.9399 34.9823 58.768 34.9792 58.6008 35.0107C58.4336 35.0422 58.2746 35.1074 58.1335 35.2025C57.9924 35.2975 57.8721 35.4204 57.7802 35.5636C57.6882 35.7067 57.6265 35.8671 57.5987 36.035C57.5709 36.2028 57.5777 36.3746 57.6186 36.5397C57.6595 36.7049 57.7337 36.8599 57.8366 36.9954C57.9395 37.1309 58.069 37.2439 58.2172 37.3276L65.6802 42.1096L65.6882 42.1156C66.3095 42.5274 66.7438 43.1672 66.8969 43.8967C67.0501 44.6262 66.9099 45.3867 66.5067 46.0137C66.1034 46.6406 65.4696 47.0836 64.7423 47.2467C64.0149 47.4099 63.2526 47.2802 62.6202 46.8856L60.3392 45.4246L55.2862 42.1146C55.0089 41.9374 54.673 41.8767 54.3512 41.9457C54.0295 42.0146 53.7479 42.2076 53.5676 42.4829C53.3873 42.7581 53.3227 43.0933 53.388 43.4158C53.4532 43.7383 53.643 44.0221 53.9162 44.2056L58.9722 47.5176H58.9772C59.2911 47.718 59.5625 47.9782 59.7758 48.2835C59.9892 48.5888 60.1403 48.9331 60.2206 49.2968C60.3008 49.6604 60.3087 50.0364 60.2437 50.4031C60.1787 50.7698 60.0421 51.1201 59.8417 51.4341C59.6413 51.748 59.381 52.0194 59.0757 52.2327C58.7705 52.446 58.4262 52.5972 58.0625 52.6774C57.6988 52.7577 57.3229 52.7656 56.9561 52.7006C56.5894 52.6356 56.2391 52.499 55.9252 52.2986L54.5012 51.3856L51.7442 49.6186C51.4638 49.4403 51.1242 49.3808 50.7999 49.453C50.4757 49.5252 50.1934 49.7232 50.0152 50.0036C49.837 50.2839 49.7774 50.6235 49.8496 50.9478C49.9218 51.272 50.1199 51.5543 50.4002 51.7326L53.1572 53.4986C53.4711 53.6997 53.7423 53.9607 53.9554 54.2666C54.1685 54.5725 54.3192 54.9175 54.399 55.2817C54.4787 55.6458 54.486 56.0222 54.4203 56.3892C54.3546 56.7562 54.2173 57.1066 54.0162 57.4206C53.8151 57.7345 53.5541 58.0057 53.2481 58.2188C52.9422 58.4318 52.5973 58.5826 52.2331 58.6623C51.8689 58.7421 51.4926 58.7494 51.1256 58.6837C50.7586 58.618 50.4081 58.4807 50.0942 58.2796L46.3642 55.8796L47.9642 53.3876C48.4772 52.5882 48.7667 51.6659 48.8025 50.7168C48.8383 49.7676 48.6192 48.8262 48.1679 47.9904C47.7165 47.1546 47.0495 46.455 46.2362 45.9644C45.4229 45.4738 44.493 45.21 43.5432 45.2006C44.1743 44.2135 44.4619 43.0457 44.3614 41.8784C44.2608 40.7111 43.7778 39.6097 42.9872 38.745C42.1967 37.8804 41.1428 37.3009 39.9892 37.0965C38.8355 36.8921 37.6467 37.0742 36.6072 37.6146C36.3647 36.7537 35.9089 35.968 35.2821 35.3301C34.6552 34.6922 33.8776 34.2228 33.0212 33.9653C32.1647 33.7077 31.2571 33.6704 30.3825 33.8568C29.5078 34.0432 28.6942 34.4473 28.0172 35.0316C27.6059 34.0222 26.8914 33.1654 25.9722 32.5796C24.785 31.819 23.3446 31.5603 21.9669 31.8603C20.5892 32.1602 19.3868 32.9943 18.6232 34.1796L17.7352 35.5646L14.5562 31.5826L27.2402 11.7916L39.9512 16.5516L35.1862 20.7936C35.041 20.9226 34.9279 21.0836 34.8558 21.264C34.7838 21.4444 34.7548 21.639 34.7712 21.8326C34.8712 23.027 35.2945 24.1716 35.9958 25.1436C36.6971 26.1156 37.6499 26.8783 38.7518 27.3498C39.8537 27.8213 41.0633 27.9838 42.2506 27.8199C43.4379 27.6561 44.5582 27.1719 45.4912 26.4196C45.5182 26.3976 45.5442 26.3756 45.5692 26.3516C47.3869 24.602 49.3002 22.9545 51.3002 21.4166C51.6642 22.7283 52.3546 23.9265 53.3069 24.8993C54.2592 25.8721 55.4425 26.5877 56.7462 26.9796C57.313 27.1434 57.8523 27.3908 58.3462 27.7136L72.3742 36.7026C73.0076 37.1082 73.4541 37.7487 73.6157 38.4832C73.7773 39.2178 73.6408 39.9865 73.2362 40.6206ZM87.4512 29.0206C87.4113 29.1477 87.3466 29.2657 87.2607 29.3677C87.1749 29.4697 87.0697 29.5536 86.9512 29.6146L79.7222 33.3536C79.483 33.4768 79.2047 33.5001 78.9483 33.4186C78.6919 33.3371 78.4783 33.1573 78.3542 32.9186L77.7292 31.7086L66.2192 9.44956C66.2097 9.40328 66.1976 9.35755 66.1832 9.31256C66.1265 9.14295 66.0341 8.98746 65.9122 8.85656L65.4212 7.90656C65.298 7.66737 65.2746 7.38911 65.3561 7.13271C65.4377 6.87631 65.6175 6.66267 65.8562 6.53856L73.0852 2.80056C73.2272 2.72634 73.385 2.68757 73.5452 2.68756C73.6515 2.68796 73.7571 2.70483 73.8582 2.73756C73.9855 2.77709 74.1037 2.84169 74.2057 2.92756C74.3077 3.01343 74.3915 3.11883 74.4522 3.23756L87.3882 28.2466C87.4493 28.3649 87.4863 28.4941 87.4971 28.6268C87.5079 28.7594 87.4923 28.8939 87.4512 29.0206Z" fill="black"/>
</svg>
